<svg width="245" height="47" viewBox="0 0 245 47" fill="none" xmlns="http://www.w3.org/2000/svg">
<path d="M11.448 12.296C14.76 12.296 17.172 13.016 18.684 14.456C20.22 15.872 20.988 17.828 20.988 20.324C20.988 21.452 20.82 22.532 20.484 23.564C20.148 24.572 19.584 25.484 18.792 26.3C18.024 27.092 17.004 27.716 15.732 28.172C14.46 28.628 12.888 28.856 11.016 28.856H8.676V38H3.24V12.296H11.448ZM11.16 16.76H8.676V24.392H10.476C11.508 24.392 12.396 24.26 13.14 23.996C13.884 23.732 14.46 23.312 14.868 22.736C15.276 22.16 15.48 21.416 15.48 20.504C15.48 19.232 15.132 18.296 14.436 17.696C13.74 17.072 12.648 16.76 11.16 16.76ZM43.2695 28.136C43.2695 29.768 43.0415 31.22 42.5855 32.492C42.1535 33.764 41.5175 34.844 40.6775 35.732C39.8615 36.596 38.8655 37.256 37.6895 37.712C36.5135 38.144 35.1815 38.36 33.6935 38.36C32.3255 38.36 31.0535 38.144 29.8775 37.712C28.7255 37.256 27.7295 36.596 26.8895 35.732C26.0495 34.844 25.3895 33.764 24.9095 32.492C24.4535 31.22 24.2255 29.768 24.2255 28.136C24.2255 25.952 24.6095 24.116 25.3775 22.628C26.1455 21.116 27.2495 19.964 28.6895 19.172C30.1295 18.38 31.8335 17.984 33.8015 17.984C35.6495 17.984 37.2815 18.38 38.6975 19.172C40.1135 19.964 41.2295 21.116 42.0455 22.628C42.8615 24.116 43.2695 25.952 43.2695 28.136ZM29.6975 28.136C29.6975 29.432 29.8295 30.524 30.0935 31.412C30.3815 32.276 30.8255 32.936 31.4255 33.392C32.0255 33.824 32.8055 34.04 33.7655 34.04C34.7255 34.04 35.4935 33.824 36.0695 33.392C36.6695 32.936 37.1015 32.276 37.3655 31.412C37.6535 30.524 37.7975 29.432 37.7975 28.136C37.7975 26.84 37.6535 25.76 37.3655 24.896C37.1015 24.032 36.6695 23.384 36.0695 22.952C35.4695 22.52 34.6895 22.304 33.7295 22.304C32.3135 22.304 31.2815 22.796 30.6335 23.78C30.0095 24.74 29.6975 26.192 29.6975 28.136ZM93.3888 34.076C93.9888 34.076 94.5648 34.016 95.1168 33.896C95.6688 33.776 96.2208 33.632 96.7728 33.464V37.46C96.1968 37.7 95.4768 37.904 94.6128 38.072C93.7728 38.264 92.8488 38.36 91.8408 38.36C90.6648 38.36 89.6088 38.168 88.6728 37.784C87.7608 37.4 87.0288 36.74 86.4768 35.804C85.9488 34.844 85.6848 33.524 85.6848 31.844V22.376H83.1288V20.108L86.0808 18.308L87.6288 14.168H91.0488V18.344H96.5568V22.376H91.0488V31.844C91.0488 32.588 91.2648 33.152 91.6968 33.536C92.1288 33.896 92.6928 34.076 93.3888 34.076ZM108.782 17.948C111.422 17.948 113.438 18.524 114.83 19.676C116.246 20.804 116.954 22.544 116.954 24.896V38H113.21L112.166 35.336H112.022C111.47 36.032 110.894 36.608 110.294 37.064C109.718 37.52 109.046 37.844 108.278 38.036C107.534 38.252 106.61 38.36 105.506 38.36C104.354 38.36 103.31 38.144 102.374 37.712C101.462 37.256 100.742 36.572 100.214 35.66C99.6862 34.724 99.4222 33.548 99.4222 32.132C99.4222 30.044 100.154 28.508 101.618 27.524C103.082 26.516 105.278 25.964 108.206 25.868L111.626 25.76V24.896C111.626 23.864 111.35 23.108 110.798 22.628C110.27 22.148 109.526 21.908 108.566 21.908C107.606 21.908 106.67 22.052 105.758 22.34C104.846 22.604 103.934 22.94 103.022 23.348L101.258 19.712C102.314 19.16 103.478 18.728 104.75 18.416C106.046 18.104 107.39 17.948 108.782 17.948ZM109.538 28.964C107.81 29.012 106.61 29.324 105.938 29.9C105.266 30.476 104.93 31.232 104.93 32.168C104.93 32.984 105.17 33.572 105.65 33.932C106.13 34.268 106.754 34.436 107.522 34.436C108.674 34.436 109.646 34.1 110.438 33.428C111.23 32.732 111.626 31.76 111.626 30.512V28.892L109.538 28.964ZM128.817 17.984C130.017 17.984 131.097 18.224 132.057 18.704C133.017 19.184 133.833 19.904 134.505 20.864H134.649L135.081 18.344H139.617V38.036C139.617 39.908 139.245 41.48 138.501 42.752C137.781 44.024 136.689 44.984 135.225 45.632C133.761 46.304 131.949 46.64 129.789 46.64C128.397 46.64 127.101 46.556 125.901 46.388C124.725 46.22 123.573 45.92 122.445 45.488V41.204C123.261 41.54 124.077 41.816 124.893 42.032C125.733 42.272 126.585 42.44 127.449 42.536C128.337 42.656 129.225 42.716 130.113 42.716C131.505 42.716 132.537 42.344 133.209 41.6C133.905 40.856 134.253 39.74 134.253 38.252V37.856C134.253 37.448 134.265 37.028 134.289 36.596C134.337 36.164 134.373 35.78 134.397 35.444H134.253C133.581 36.476 132.777 37.22 131.841 37.676C130.905 38.132 129.849 38.36 128.673 38.36C126.345 38.36 124.521 37.472 123.201 35.696C121.905 33.896 121.257 31.4 121.257 28.208C121.257 26.048 121.557 24.212 122.157 22.7C122.757 21.164 123.621 20 124.749 19.208C125.901 18.392 127.257 17.984 128.817 17.984ZM130.509 22.34C129.669 22.34 128.961 22.568 128.385 23.024C127.833 23.456 127.413 24.116 127.125 25.004C126.861 25.868 126.729 26.96 126.729 28.28C126.729 30.248 127.041 31.724 127.665 32.708C128.289 33.668 129.261 34.148 130.581 34.148C131.277 34.148 131.877 34.064 132.381 33.896C132.885 33.704 133.293 33.404 133.605 32.996C133.941 32.564 134.193 32.012 134.361 31.34C134.529 30.668 134.613 29.852 134.613 28.892V28.244C134.613 26.828 134.469 25.688 134.181 24.824C133.893 23.96 133.449 23.336 132.849 22.952C132.249 22.544 131.469 22.34 130.509 22.34ZM153.326 17.984C155.15 17.984 156.71 18.332 158.006 19.028C159.326 19.724 160.346 20.732 161.066 22.052C161.786 23.372 162.146 24.992 162.146 26.912V29.504H149.474C149.522 31.016 149.966 32.204 150.806 33.068C151.67 33.932 152.858 34.364 154.37 34.364C155.642 34.364 156.794 34.244 157.826 34.004C158.858 33.74 159.926 33.344 161.03 32.816V36.956C160.07 37.436 159.05 37.784 157.97 38C156.914 38.24 155.63 38.36 154.118 38.36C152.15 38.36 150.41 38 148.898 37.28C147.386 36.536 146.198 35.42 145.334 33.932C144.47 32.444 144.038 30.572 144.038 28.316C144.038 26.012 144.422 24.104 145.19 22.592C145.982 21.056 147.074 19.904 148.466 19.136C149.858 18.368 151.478 17.984 153.326 17.984ZM153.362 21.8C152.33 21.8 151.466 22.136 150.77 22.808C150.098 23.48 149.702 24.524 149.582 25.94H157.106C157.106 25.148 156.962 24.44 156.674 23.816C156.41 23.192 156.002 22.7 155.45 22.34C154.898 21.98 154.202 21.8 153.362 21.8Z" fill="#421D54"/>
<path d="M184.487 12.296C187.799 12.296 190.211 13.016 191.723 14.456C193.259 15.872 194.027 17.828 194.027 20.324C194.027 21.452 193.859 22.532 193.523 23.564C193.187 24.572 192.623 25.484 191.831 26.3C191.063 27.092 190.043 27.716 188.771 28.172C187.499 28.628 185.927 28.856 184.055 28.856H181.715V38H176.279V12.296H184.487ZM184.199 16.76H181.715V24.392H183.515C184.547 24.392 185.435 24.26 186.179 23.996C186.923 23.732 187.499 23.312 187.907 22.736C188.315 22.16 188.519 21.416 188.519 20.504C188.519 19.232 188.171 18.296 187.475 17.696C186.779 17.072 185.687 16.76 184.199 16.76ZM209.433 17.984C209.697 17.984 210.009 17.996 210.369 18.02C210.729 18.044 211.017 18.08 211.233 18.128L210.837 23.168C210.669 23.12 210.417 23.084 210.081 23.06C209.769 23.012 209.493 22.988 209.253 22.988C208.557 22.988 207.885 23.084 207.237 23.276C206.589 23.444 206.001 23.72 205.473 24.104C204.969 24.488 204.561 25.004 204.249 25.652C203.961 26.276 203.817 27.056 203.817 27.992V38H198.453V18.344H202.521L203.313 21.656H203.565C203.949 20.984 204.429 20.372 205.005 19.82C205.581 19.268 206.241 18.824 206.985 18.488C207.753 18.152 208.569 17.984 209.433 17.984ZM231.953 28.136C231.953 29.768 231.725 31.22 231.269 32.492C230.837 33.764 230.201 34.844 229.361 35.732C228.545 36.596 227.549 37.256 226.373 37.712C225.197 38.144 223.865 38.36 222.377 38.36C221.009 38.36 219.737 38.144 218.561 37.712C217.409 37.256 216.413 36.596 215.573 35.732C214.733 34.844 214.073 33.764 213.593 32.492C213.137 31.22 212.909 29.768 212.909 28.136C212.909 25.952 213.293 24.116 214.061 22.628C214.829 21.116 215.933 19.964 217.373 19.172C218.813 18.38 220.517 17.984 222.485 17.984C224.333 17.984 225.965 18.38 227.381 19.172C228.797 19.964 229.913 21.116 230.729 22.628C231.545 24.116 231.953 25.952 231.953 28.136ZM218.381 28.136C218.381 29.432 218.513 30.524 218.777 31.412C219.065 32.276 219.509 32.936 220.109 33.392C220.709 33.824 221.489 34.04 222.449 34.04C223.409 34.04 224.177 33.824 224.753 33.392C225.353 32.936 225.785 32.276 226.049 31.412C226.337 30.524 226.481 29.432 226.481 28.136C226.481 26.84 226.337 25.76 226.049 24.896C225.785 24.032 225.353 23.384 224.753 22.952C224.153 22.52 223.373 22.304 222.413 22.304C220.997 22.304 219.965 22.796 219.317 23.78C218.693 24.74 218.381 26.192 218.381 28.136Z" fill="#C94A38"/>
<path d="M46 35.5V21.5547H51.25V33.75C51.25 34.7344 50.4297 35.5 49.5 35.5H46ZM48.625 32.0547C48.1328 32.0547 47.75 32.4375 47.75 32.9297C47.75 33.3672 48.1328 33.8047 48.625 33.8047C49.0625 33.8047 49.5 33.3672 49.5 32.9297C49.5 32.4375 49.0625 32.0547 48.625 32.0547ZM65.0312 18H65.5234C68.6953 18 71.7031 19.2578 73.9453 21.5V32.1094C73.8359 31.9453 73.6719 31.8359 73.5625 31.6719L65.5781 25.2188L67 23.9062C67.3828 23.5781 67.3828 23.0312 67.0547 22.7031C66.7266 22.3203 66.1797 22.3203 65.7969 22.6484L61.4766 26.6406C61.4219 26.6406 61.4219 26.6406 61.4219 26.6406C60.4922 27.4609 59.0703 27.1875 58.3594 26.4766C57.5938 25.6562 57.5938 24.2891 58.4688 23.4141L63.8828 18.4922C64.2109 18.1641 64.5938 18 65.0312 18ZM64.2656 26.4219L72.4141 33.0391C73.1797 33.6406 73.2891 34.7344 72.6875 35.5L72.1953 36.1562C71.5391 36.9219 70.4453 37.0312 69.7344 36.4297L69.4062 36.1562L67.7109 38.2891C67 39.1641 65.6875 39.2188 64.8125 38.5625L63.8281 37.7422C62.625 39.2188 60.4375 39.4922 58.9062 38.2344L53.9844 33.75H53V21.5C55.2422 19.3125 58.25 18 61.4219 18H61.8047L57.3203 22.1016C55.7344 23.5781 55.625 26.0938 57.0469 27.6797C58.5234 29.2656 60.9844 29.375 62.625 27.8984L64.2656 26.4219ZM75.75 21.5547H81V35.5L77.4453 35.5547C76.5156 35.5547 75.75 34.7344 75.75 33.75V21.5547ZM78.375 33.75C78.8125 33.75 79.25 33.3672 79.25 32.9297C79.25 32.4375 78.8125 32.0547 78.375 32.0547C77.8828 32.0547 77.5 32.4375 77.5 32.9297C77.5 33.3672 77.8828 33.75 78.375 33.75Z" fill="#C94A38"/>
</svg>
